<svg xmlns="http://www.w3.org/2000/svg" width="900" height="200" viewBox="0 0 900 200">
  <rect width="900" height="200" fill="#000"/>
  <!-- Æ — Inter Bold, extracted path -->
  <path d="M280.51 140.0 308.25 73.76H369.78V85.50H335.90V101.06H367.20V112.48H335.90V128.26H369.78V140.0H322.70V124.17H301.14L294.65 140.0ZM305.41 113.64H322.70V85.50H316.88Z" fill="#FFF"/>
  <!-- THER — D-DIN original paths -->
  <path d="M437.088 84.704H420.192V140.0H407.52V84.704H390.624V73.76H437.088Z M504.864 73.76V140.0H492.288V111.968H470.304V140.0H457.728V73.76H470.304V101.024H492.288V73.76Z M543.168 84.704V101.12H568.32V112.064H543.168V129.056H572.64V140.0H530.592V73.76H572.64V84.704Z M618.048 113.12H608.64V140.0H596.064V73.76H621.216Q630.912 73.76 636.672 79.088Q642.432 84.416 642.432 93.536Q642.432 100.064 639.408 104.576Q636.384 109.088 630.72 111.2L645.12 140.0H630.624ZM608.64 102.656H620.544Q624.96 102.656 627.408 100.304Q629.856 97.952 629.856 93.536Q629.856 89.504 627.36 87.104Q624.864 84.704 620.544 84.704H608.64Z" fill="#FFF"/>
</svg>
